# xmcd
#
# Track frame offsets:
# 150
# 11720
# 24099
# 35040
# 46034
# 56879
# 68413
# 79140
# 90721
# 101605
# 114483
#
# Disc length: 1676 seconds
#
#
# Revision: 0
# Processed by: cddbd v1.5.2PL0 Copyright (c) Steve Scherf et al.
# Submitted via: FreeRIP 2.945 
#
DISCID=81068a0b
DTITLE=Bill Anderson - Don't She Look Good
DYEAR=1900
DGENRE=Country
TTITLE0=Don't She Look Good
TTITLE1=This Land The Lord And Me
TTITLE2=If Only You'd Happen To Me
TTITLE3=Calagry
TTITLE4=Gotta Keep Movin
TTITLE5=I Can't Believe That It's Over
TTITLE6=Love's Not Love
TTITLE7=I'm Just Gone
TTITLE8=Sugar In Your Coffee
TTITLE9=Watching It Go
TTITLE10=Country Music In My Soul
EXTD=
EXTT0=
EXTT1=
EXTT2=
EXTT3=
EXTT4=
EXTT5=
EXTT6=
EXTT7=
EXTT8=
EXTT9=
EXTT10=
PLAYORDER=
